# xmcd CD database file
#
# Track frame offsets:
#	187
#	13520
#	25737
#	48792
#	66910
#	86990
#	101665
#	120472
#	132155
#	158530
#
# Disc length: 2280 seconds
#
# Revision: 0
# Processed by: cddbd v1.5.1PL2 Copyright (c) Steve Scherf et al.
# Submitted via: CDex 1.51
#
DISCID=7508e60a
DTITLE=Various Artist - ザ・プロレスリング?
DYEAR=1900
DGENRE=Other
TTITLE0=Dragon Supplex
TTITLE1=Power Hall
TTITLE2=騎行
TTITLE3=The Fight
TTITLE4=The Final Countdown
TTITLE5=Captured
TTITLE6=Super Muscles
TTITLE7=The Room Part 1
TTITLE8=The War
TTITLE9=炎のファイター
EXTD=
EXTT0=
EXTT1=
EXTT2=
EXTT3=
EXTT4=
EXTT5=
EXTT6=
EXTT7=
EXTT8=
EXTT9=
PLAYORDER=
